<svg xmlns="http://www.w3.org/2000/svg" viewBox="0 0 100 100" fill="none">
  <!-- Green petals (clover shape) -->
  <path d="M50 15 C50 15 35 5 25 15 C15 25 25 40 35 45 C25 40 5 35 5 50 C5 65 25 65 35 55 C25 65 15 80 25 85 C35 95 50 80 50 70 C50 80 65 95 75 85 C85 80 75 65 65 55 C75 65 95 65 95 50 C95 35 75 40 65 45 C75 40 85 25 75 15 C65 5 50 15 50 15Z" fill="#76BC43" stroke="#76BC43" stroke-width="1"/>
  <!-- Pink/magenta D shape -->
  <path d="M55 30 C55 30 55 25 65 25 C80 25 82 50 65 55 C55 58 55 55 55 55 L55 30Z" fill="#D60D7E"/>
  <path d="M52 35 L52 52 C52 52 52 55 58 53 C72 48 72 32 60 28 C54 27 52 30 52 35Z" fill="none" stroke="#D60D7E" stroke-width="0"/>
  <!-- Inner spiral/swirl of D -->
  <path d="M58 35 C58 35 58 33 62 33 C70 33 70 47 62 47 C58 47 58 45 58 45 L58 35Z" fill="#1a0a15"/>
</svg>
